<svg width="64" height="64" viewBox="0 0 64 64" fill="none" xmlns="http://www.w3.org/2000/svg">
<circle cx="32" cy="32" r="32" fill="black"/>
<path d="M32 25.1667C32.881 25.1667 33.7533 24.9932 34.5672 24.656C35.3811 24.3189 36.1206 23.8248 36.7435 23.2018C37.3664 22.5789 37.8606 21.8394 38.1977 21.0255C38.5348 20.2116 38.7083 19.3393 38.7083 18.4583C38.7083 17.5774 38.5348 16.7051 38.1977 15.8912C37.8606 15.0773 37.3664 14.3378 36.7435 13.7148C36.1206 13.0919 35.3811 12.5978 34.5672 12.2606C33.7533 11.9235 32.881 11.75 32 11.75C30.2208 11.75 28.5145 12.4568 27.2565 13.7148C25.9984 14.9729 25.2917 16.6792 25.2917 18.4583C25.2917 20.2375 25.9984 21.9438 27.2565 23.2018C28.5145 24.4599 30.2208 25.1667 32 25.1667ZM14.75 45.1V46.25H49.25V45.1C49.25 40.8067 49.25 38.66 48.4143 37.0193C47.6793 35.5768 46.5065 34.404 45.064 33.669C43.4233 32.8333 41.2767 32.8333 36.9833 32.8333H27.0167C22.7233 32.8333 20.5767 32.8333 18.936 33.669C17.4935 34.404 16.3207 35.5768 15.5857 37.0193C14.75 38.66 14.75 40.8067 14.75 45.1Z" stroke="white" stroke-width="2" stroke-linecap="round" stroke-linejoin="round"/>
</svg>
