<svg width="29" height="30" viewBox="0 0 29 30" fill="none" xmlns="http://www.w3.org/2000/svg">
<path d="M4.83203 22.2498C4.83203 20.968 5.34126 19.7386 6.24768 18.8322C7.15411 17.9257 8.38348 17.4165 9.66536 17.4165H19.332C20.6139 17.4165 21.8433 17.9257 22.7497 18.8322C23.6561 19.7386 24.1654 20.968 24.1654 22.2498C24.1654 22.8908 23.9108 23.5055 23.4575 23.9587C23.0043 24.4119 22.3896 24.6665 21.7487 24.6665H7.2487C6.60776 24.6665 5.99307 24.4119 5.53986 23.9587C5.08664 23.5055 4.83203 22.8908 4.83203 22.2498Z" stroke="white" stroke-width="2" stroke-linejoin="round"/>
<path d="M14.5 12.5833C16.502 12.5833 18.125 10.9603 18.125 8.95825C18.125 6.95622 16.502 5.33325 14.5 5.33325C12.498 5.33325 10.875 6.95622 10.875 8.95825C10.875 10.9603 12.498 12.5833 14.5 12.5833Z" stroke="white" stroke-width="2"/>
</svg>
