<svg width="26" height="26" viewBox="0 0 26 26" fill="none" xmlns="http://www.w3.org/2000/svg">
<path fill-rule="evenodd" clip-rule="evenodd" d="M23.8351 8.98416C23.8351 12.7498 20.7693 15.8027 16.9885 15.8027C16.2995 15.8027 14.7286 15.6445 13.9649 15.0097L13.0094 15.9608C12.4471 16.5209 12.5988 16.6856 12.849 16.9564C12.953 17.0702 13.0744 17.2012 13.1686 17.3887C13.1686 17.3887 13.9649 18.498 13.1686 19.6084C12.6909 20.2422 11.353 21.1294 9.82545 19.6084L9.50695 19.9247C9.50695 19.9247 10.4614 21.0352 9.6662 22.1456C9.18845 22.7793 7.91445 23.4131 6.7997 22.3037L5.68603 23.4131C4.9212 24.1747 3.98737 23.7305 3.61687 23.4131L2.66028 22.4619C1.7687 21.5736 2.2887 20.6116 2.66028 20.2411L10.9391 11.9969C10.9391 11.9969 10.1429 10.7294 10.1429 8.98525C10.1429 5.21958 13.2087 2.16675 16.9895 2.16675C20.7704 2.16675 23.8351 5.21958 23.8351 8.98416ZM16.9895 11.3632C17.6214 11.3643 18.228 11.1145 18.6757 10.6686C19.1234 10.2226 19.3758 9.61716 19.3772 8.98525C19.3766 8.67226 19.3144 8.36246 19.1941 8.07351C19.0738 7.78457 18.8978 7.52216 18.6761 7.30124C18.4544 7.08033 18.1913 6.90526 17.9019 6.78601C17.6126 6.66676 17.3025 6.60568 16.9895 6.60625C16.6766 6.60568 16.3665 6.66676 16.0771 6.78601C15.7878 6.90526 15.5247 7.08033 15.303 7.30124C15.0813 7.52216 14.9052 7.78457 14.7849 8.07351C14.6646 8.36246 14.6024 8.67226 14.6019 8.98525C14.6033 9.61716 14.8556 10.2226 15.3034 10.6686C15.7511 11.1145 16.3576 11.3643 16.9895 11.3632Z" fill="white"/>
</svg>
