<svg xmlns="http://www.w3.org/2000/svg" xmlns:xlink="http://www.w3.org/1999/xlink" width="762" zoomAndPan="magnify" viewBox="0 0 571.5 201.000001" height="268" preserveAspectRatio="xMidYMid meet" version="1.0"><defs><g/><clipPath id="74632924e1"><path d="M 256.382812 12.296875 L 348 12.296875 L 348 70 L 256.382812 70 Z M 256.382812 12.296875 " clip-rule="nonzero"/></clipPath><clipPath id="9f2fffd224"><path d="M 279 29 L 332 29 L 332 98.863281 L 279 98.863281 Z M 279 29 " clip-rule="nonzero"/></clipPath></defs><g clip-path="url(#74632924e1)"><path fill="#ffffff" d="M 309.175781 66.738281 C 309.175781 66.738281 291.761719 67.296875 275.460938 53.292969 C 259.164062 39.285156 256.652344 12.761719 256.46875 12.945312 C 256.28125 13.132812 281.132812 8.144531 299.324219 24.691406 C 317.511719 41.238281 309.175781 66.738281 309.175781 66.738281 Z M 342.984375 49.109375 C 348.1875 38.726562 347.753906 25.464844 347.753906 25.464844 C 347.753906 25.464844 330.992188 25.339844 321.695312 36.835938 C 309.671875 51.648438 314.628906 69.25 314.628906 69.25 C 314.628906 69.25 335.453125 64.105469 342.984375 49.109375 Z M 342.984375 49.109375 " fill-opacity="1" fill-rule="nonzero"/></g><g clip-path="url(#9f2fffd224)"><path fill="#385c28" d="M 331.332031 40.617188 C 330.742188 40 329.75 40 329.132812 40.585938 C 319.308594 50.253906 314.476562 61.75 312.121094 73.464844 C 309.515625 60.203125 302.234375 40.058594 281.816406 29.460938 C 281.039062 29.058594 280.109375 29.371094 279.738281 30.113281 C 279.335938 30.855469 279.644531 31.816406 280.390625 32.191406 C 308.898438 47 310.386719 81.738281 310.445312 85.921875 C 310.136719 89.855469 310.042969 93.730469 310.011719 97.511719 C 310.011719 98.378906 310.695312 99.058594 311.5625 99.058594 C 312.398438 99.058594 313.113281 98.378906 313.113281 97.511719 C 313.144531 93.976562 313.234375 90.382812 313.484375 86.726562 C 313.515625 86.601562 313.546875 86.480469 313.546875 86.355469 L 313.546875 86.015625 C 314.722656 70.863281 318.71875 55.121094 331.300781 42.757812 C 331.921875 42.199219 331.921875 41.238281 331.332031 40.617188 Z M 331.332031 40.617188 " fill-opacity="1" fill-rule="nonzero"/></g><g fill="#ffffff" fill-opacity="1"><g transform="translate(73.870099, 141.413282)"><g><path d="M 44.328125 -57.296875 L 59.84375 -57.296875 L 59.84375 0 L 44.328125 0 L 44.328125 -6.421875 C 41.148438 -2.285156 36.347656 -0.21875 29.921875 -0.21875 C 22.085938 -0.144531 15.363281 -2.878906 9.75 -8.421875 C 4.132812 -13.960938 1.289062 -20.6875 1.21875 -28.59375 C 1.144531 -36.414062 3.878906 -43.132812 9.421875 -48.75 C 14.960938 -54.363281 21.6875 -57.210938 29.59375 -57.296875 C 36.09375 -57.296875 41.003906 -55.1875 44.328125 -50.96875 Z M 39.671875 -18.84375 C 42.398438 -21.570312 43.765625 -24.894531 43.765625 -28.8125 C 43.765625 -32.800781 42.363281 -36.125 39.5625 -38.78125 C 36.75 -41.59375 33.460938 -42.925781 29.703125 -42.78125 C 25.785156 -42.78125 22.457031 -41.410156 19.71875 -38.671875 C 16.988281 -35.941406 15.625 -32.617188 15.625 -28.703125 C 15.625 -24.859375 17.023438 -21.535156 19.828125 -18.734375 C 22.566406 -15.992188 25.894531 -14.625 29.8125 -14.625 C 33.800781 -14.769531 37.085938 -16.175781 39.671875 -18.84375 Z M 39.671875 -18.84375 "/></g></g></g><g fill="#ffffff" fill-opacity="1"><g transform="translate(137.026273, 141.413282)"><g><path d="M 45.875 -57.171875 L 60.390625 -57.171875 L 60.390625 -0.109375 C 60.390625 7.722656 57.617188 14.410156 52.078125 19.953125 C 46.609375 25.484375 39.960938 28.289062 32.140625 28.375 C 24.828125 28.445312 18.4375 26.046875 12.96875 21.171875 C 7.570312 16.441406 4.46875 10.492188 3.65625 3.328125 L 18.28125 3.328125 C 18.800781 5.691406 20.054688 7.867188 22.046875 9.859375 C 24.785156 12.597656 28.113281 13.96875 32.03125 13.96875 C 35.9375 13.96875 39.222656 12.5625 41.890625 9.75 C 44.617188 7.019531 45.984375 3.734375 45.984375 -0.109375 L 45.875 -5.765625 C 42.101562 -1.992188 37.523438 -0.109375 32.140625 -0.109375 C 24.234375 -0.0351562 17.472656 -2.769531 11.859375 -8.3125 C 6.242188 -13.851562 3.4375 -20.578125 3.4375 -28.484375 C 3.363281 -36.378906 6.097656 -43.097656 11.640625 -48.640625 C 17.179688 -54.253906 23.898438 -57.097656 31.796875 -57.171875 C 38.078125 -57.171875 42.769531 -55.21875 45.875 -51.3125 Z M 45.875 -30.25 C 45.582031 -33.5 44.21875 -36.304688 41.78125 -38.671875 C 38.96875 -41.328125 35.640625 -42.65625 31.796875 -42.65625 C 27.960938 -42.65625 24.675781 -41.289062 21.9375 -38.5625 C 19.207031 -35.675781 17.84375 -32.351562 17.84375 -28.59375 C 17.84375 -24.75 19.242188 -21.421875 22.046875 -18.609375 C 24.785156 -15.878906 28.113281 -14.515625 32.03125 -14.515625 C 36.019531 -14.660156 39.304688 -16.066406 41.890625 -18.734375 C 44.179688 -21.015625 45.507812 -23.742188 45.875 -26.921875 Z M 45.875 -30.25 "/></g></g></g><g fill="#ffffff" fill-opacity="1"><g transform="translate(200.736446, 141.413282)"><g><path d="M 18.84375 -48.53125 C 20.09375 -52.082031 22.195312 -54.554688 25.15625 -55.953125 C 28.03125 -57.359375 32.351562 -58.0625 38.125 -58.0625 L 38.125 -42.21875 C 32.507812 -42.21875 27.816406 -40.296875 24.046875 -36.453125 C 20.578125 -33.054688 18.84375 -29.328125 18.84375 -25.265625 L 18.84375 0 L 3.328125 0 L 3.328125 -57.0625 L 18.84375 -57.0625 Z M 18.84375 -48.53125 "/></g></g></g><g fill="#ffffff" fill-opacity="1"><g transform="translate(240.513756, 141.413282)"><g><path d="M 29.59375 -57.0625 C 37.488281 -57.132812 44.207031 -54.40625 49.75 -48.875 C 55.363281 -43.257812 58.171875 -36.535156 58.171875 -28.703125 C 58.242188 -20.796875 55.507812 -14.070312 49.96875 -8.53125 C 44.4375 -2.914062 37.753906 -0.0703125 29.921875 0 C 22.015625 0.0703125 15.253906 -2.660156 9.640625 -8.203125 C 4.023438 -13.742188 1.21875 -20.46875 1.21875 -28.375 C 1.144531 -36.269531 3.878906 -42.988281 9.421875 -48.53125 C 14.960938 -54.144531 21.6875 -56.988281 29.59375 -57.0625 Z M 39.671875 -18.609375 C 42.398438 -21.347656 43.765625 -24.675781 43.765625 -28.59375 C 43.765625 -32.4375 42.363281 -35.757812 39.5625 -38.5625 C 36.75 -41.21875 33.425781 -42.546875 29.59375 -42.546875 C 25.75 -42.546875 22.457031 -41.179688 19.71875 -38.453125 C 16.988281 -35.566406 15.625 -32.242188 15.625 -28.484375 C 15.625 -24.640625 17.023438 -21.3125 19.828125 -18.5 C 22.566406 -15.769531 25.894531 -14.40625 29.8125 -14.40625 C 33.800781 -14.550781 37.085938 -15.953125 39.671875 -18.609375 Z M 39.671875 -18.609375 "/></g></g></g><g fill="#ffffff" fill-opacity="1"><g transform="translate(299.902716, 141.413282)"><g><path d="M 18.84375 -77.015625 L 18.84375 0 L 3.328125 0 L 3.328125 -77.015625 Z M 18.84375 -77.015625 "/></g></g></g><g fill="#ffffff" fill-opacity="1"><g transform="translate(322.062761, 141.413282)"><g><path d="M 57.0625 -57.171875 L 34.578125 2.546875 C 32.140625 8.453125 28.257812 13.144531 22.9375 16.625 C 17.613281 20.09375 11.816406 21.753906 5.546875 21.609375 L 5.546875 6.09375 C 7.828125 6.164062 10.113281 5.6875 12.40625 4.65625 C 15.65625 3.175781 18.09375 0.847656 19.71875 -2.328125 L 22.828125 -10.859375 L 3.328125 -57.171875 L 20.390625 -57.171875 L 30.6875 -32.25 L 39.890625 -57.171875 Z M 57.0625 -57.171875 "/></g></g></g><g fill="#ffffff" fill-opacity="1"><g transform="translate(382.559729, 141.413282)"><g><path d="M 51.53125 -15.515625 L 51.53125 0 L 3.328125 0 L 3.328125 -15.515625 L 29.359375 -41.546875 L 3.328125 -41.546875 L 3.328125 -57.0625 L 51.3125 -57.0625 L 51.3125 -41.546875 L 25.265625 -15.515625 Z M 51.53125 -15.515625 "/></g></g></g><g fill="#ffffff" fill-opacity="1"><g transform="translate(437.405887, 141.413282)"><g><path d="M 58.28125 -26.046875 C 58.351562 -24.492188 58.351562 -23.566406 58.28125 -23.265625 L 16.625 -23.375 C 17.21875 -21.675781 18.285156 -20.050781 19.828125 -18.5 C 22.710938 -15.769531 26.039062 -14.40625 29.8125 -14.40625 C 33.800781 -14.550781 37.125 -15.953125 39.78125 -18.609375 L 40.21875 -19.0625 L 54.625 -14.515625 C 51.445312 -9.566406 48.125 -6.019531 44.65625 -3.875 C 40.738281 -1.363281 35.828125 -0.0703125 29.921875 0 C 22.085938 0.0703125 15.363281 -2.660156 9.75 -8.203125 C 4.132812 -13.742188 1.289062 -20.46875 1.21875 -28.375 C 1.144531 -36.195312 3.878906 -42.914062 9.421875 -48.53125 C 14.960938 -54.144531 21.6875 -56.988281 29.59375 -57.0625 C 37.414062 -57.132812 44.132812 -54.40625 49.75 -48.875 C 55.363281 -43.332031 58.207031 -36.609375 58.28125 -28.703125 Z M 29.703125 -42.546875 C 25.785156 -42.546875 22.457031 -41.179688 19.71875 -38.453125 C 18.320312 -36.898438 17.328125 -35.347656 16.734375 -33.796875 L 42.78125 -33.796875 C 42.1875 -35.347656 41.148438 -36.9375 39.671875 -38.5625 C 36.859375 -41.21875 33.535156 -42.546875 29.703125 -42.546875 Z M 29.703125 -42.546875 "/></g></g></g></svg>